<svg width="393" height="54" viewBox="0 0 393 54" fill="none" xmlns="http://www.w3.org/2000/svg">
  <rect width="393" height="54" fill="white"/>
  <g clipPath="url(#clip0_93_2936)">
    <g clipPath="url(#clip1_93_2936)">
      <mask id="path-1-inside-1_93_2936" fill="white">
        <path d="M0 0H393V54H0V0Z"/>
      </mask>
      <rect width="393" height="54" fill="white" fillOpacity="0.75" style="mix-blend-mode:hard-light"/>
    </g>
    <path d="M393 53.6667H0V54.3333H393V53.6667Z" fill="black" fillOpacity="0.3" mask="url(#path-1-inside-1_93_2936)"/>
    <path d="M58.2627 25.8145C60.6201 25.8311 62.9443 27.2256 62.9609 31.625C62.9609 35.7754 61.085 38.166 58.1299 38.166C55.8057 38.166 54.2119 36.7217 53.9463 34.7295H56.0879C56.3037 35.6758 57.0342 36.29 58.1299 36.29C59.873 36.29 60.8525 34.7461 60.8691 32.1729H60.7363C60.1221 33.2188 58.9766 33.833 57.6484 33.833C55.5068 33.833 53.8467 32.2061 53.8301 29.9316C53.8301 27.5742 55.5898 25.7979 58.2627 25.8145ZM58.2793 27.5576C56.9346 27.5576 55.9219 28.6035 55.9385 29.8818C55.9385 31.1768 56.9014 32.1895 58.2461 32.1895C59.5742 32.1895 60.6201 31.1104 60.6035 29.8652C60.6035 28.6367 59.624 27.5576 58.2793 27.5576ZM66.082 36.5059C65.3682 36.5059 64.7871 35.9248 64.7871 35.2109C64.7871 34.5137 65.3682 33.9326 66.082 33.9326C66.7627 33.9326 67.3604 34.5137 67.3604 35.2109C67.3604 35.9248 66.7627 36.5059 66.082 36.5059ZM66.082 30.0645C65.3682 30.0645 64.7871 29.4834 64.7871 28.7695C64.7871 28.0723 65.3682 27.4912 66.082 27.4912C66.7627 27.4912 67.3604 28.0723 67.3604 28.7695C67.3604 29.4834 66.7627 30.0645 66.082 30.0645ZM69.1699 35.7588V34.0322L74.3662 25.9805H77.0557V33.9824H78.6328V35.7588H77.0557V38H74.9971V35.7588H69.1699ZM71.3779 33.9824H75.0303V28.4375H74.8975L71.3779 33.8994V33.9824ZM85.0742 25.9805V38H82.8994V28.0889H82.833L80.0273 29.8818V27.9062L82.999 25.9805H85.0742Z" fill="black"/>
    <path fillRule="evenodd" clipRule="evenodd" d="M303.364 27.0329C303.364 26.3999 302.886 25.8867 302.297 25.8867H301.231C300.642 25.8867 300.164 26.3999 300.164 27.0329V36.9669C300.164 37.5999 300.642 38.1131 301.231 38.1131H302.297C302.886 38.1131 303.364 37.5999 303.364 36.9669V27.0329ZM295.93 28.332H296.997C297.586 28.332 298.063 28.8575 298.063 29.5057V36.9394C298.063 37.5876 297.586 38.1131 296.997 38.1131H295.93C295.341 38.1131 294.863 37.5876 294.863 36.9394V29.5057C294.863 28.8575 295.341 28.332 295.93 28.332ZM291.598 30.981H290.532C289.942 30.981 289.465 31.5132 289.465 32.1697V36.9244C289.465 37.5809 289.942 38.1131 290.532 38.1131H291.598C292.187 38.1131 292.665 37.5809 292.665 36.9244V32.1697C292.665 31.5132 292.187 30.981 291.598 30.981ZM286.297 33.4263H285.231C284.642 33.4263 284.164 33.9509 284.164 34.598V36.9414C284.164 37.5885 284.642 38.1131 285.231 38.1131H286.297C286.886 38.1131 287.364 37.5885 287.364 36.9414V34.598C287.364 33.9509 286.886 33.4263 286.297 33.4263Z" fill="black"/>
    <path fillRule="evenodd" clipRule="evenodd" d="M318.935 28.3022C321.422 28.3023 323.814 29.2244 325.616 30.8779C325.752 31.0055 325.969 31.0039 326.103 30.8743L327.4 29.6108C327.468 29.545 327.506 29.456 327.505 29.3633C327.504 29.2706 327.466 29.182 327.397 29.117C322.666 24.7423 315.202 24.7423 310.471 29.117C310.403 29.1819 310.364 29.2705 310.363 29.3632C310.363 29.4559 310.4 29.545 310.468 29.6108L311.766 30.8743C311.899 31.0041 312.117 31.0057 312.252 30.8779C314.055 29.2243 316.447 28.3022 318.935 28.3022ZM318.931 32.5225C320.289 32.5224 321.597 33.0342 322.604 33.9583C322.74 34.0894 322.954 34.0866 323.087 33.9519L324.374 32.6326C324.442 32.5634 324.479 32.4695 324.478 32.3719C324.477 32.2744 324.438 32.1813 324.369 32.1135C321.305 29.2227 316.56 29.2227 313.496 32.1135C313.427 32.1813 313.388 32.2744 313.387 32.372C313.386 32.4696 313.424 32.5635 313.491 32.6326L314.778 33.9519C314.911 34.0866 315.125 34.0894 315.262 33.9583C316.267 33.0348 317.575 32.5231 318.931 32.5225ZM321.456 35.316C321.458 35.4214 321.421 35.523 321.353 35.5968L319.177 38.0515C319.113 38.1236 319.026 38.1642 318.935 38.1642C318.844 38.1642 318.757 38.1236 318.693 38.0515L316.516 35.5968C316.449 35.5229 316.412 35.4213 316.414 35.316C316.416 35.2106 316.457 35.1108 316.527 35.0402C317.917 33.7263 319.953 33.7263 321.343 35.0402C321.413 35.1109 321.454 35.2107 321.456 35.316Z" fill="black"/>
    <rect opacity="0.35" x="335.008" y="26" width="24" height="12" rx="3.8" stroke="black"/>
    <path opacity="0.4" d="M360.508 30.2812V34.3567C361.313 34.0116 361.836 33.2086 361.836 32.319C361.836 31.4294 361.313 30.6264 360.508 30.2812Z" fill="black"/>
    <rect x="336.508" y="27.5" width="21" height="9" rx="2.5" fill="black"/>
  </g>
  <defs>
    <clipPath id="clip0_93_2936">
      <rect width="393" height="54" fill="white"/>
    </clipPath>
    <clipPath id="clip1_93_2936">
      <path d="M0 0H393V54H0V0Z" fill="white"/>
    </clipPath>
  </defs>
</svg> 